<?xml version="1.0" encoding="UTF-8" standalone="no"?>
<!DOCTYPE svg PUBLIC "-//W3C//DTD SVG 1.1//EN"
 "http://www.w3.org/Graphics/SVG/1.1/DTD/svg11.dtd">
<!-- Generated by graphviz version 13.1.1 (20250719.2154)
 -->
<!-- Title: DependencyFlow Pages: 1 -->
<svg width="1072pt" height="762pt"
 viewBox="0.00 0.00 1072.00 762.00" xmlns="http://www.w3.org/2000/svg" xmlns:xlink="http://www.w3.org/1999/xlink">
<g id="graph0" class="graph" transform="scale(1 1) rotate(0) translate(4 757.75)">
<title>DependencyFlow</title>
<polygon fill="white" stroke="none" points="-4,4 -4,-757.75 1067.75,-757.75 1067.75,4 -4,4"/>
<text xml:space="preserve" text-anchor="middle" x="531.88" y="-188.75" font-family="Times,serif" font-size="10.00">📐 Dependency Rules:</text>
<text xml:space="preserve" text-anchor="middle" x="531.88" y="-162.5" font-family="Times,serif" font-size="10.00">✅ Allowed Dependencies:</text>
<text xml:space="preserve" text-anchor="middle" x="531.88" y="-148.25" font-family="Times,serif" font-size="10.00">• Outer layers → Inner layers</text>
<text xml:space="preserve" text-anchor="middle" x="531.88" y="-137" font-family="Times,serif" font-size="10.00">• Infrastructure → Domain ports</text>
<text xml:space="preserve" text-anchor="middle" x="531.88" y="-125.75" font-family="Times,serif" font-size="10.00">• Application → Domain</text>
<text xml:space="preserve" text-anchor="middle" x="531.88" y="-102.5" font-family="Times,serif" font-size="10.00">❌ Forbidden Dependencies:</text>
<text xml:space="preserve" text-anchor="middle" x="531.88" y="-88.25" font-family="Times,serif" font-size="10.00">• Domain → Infrastructure</text>
<text xml:space="preserve" text-anchor="middle" x="531.88" y="-77" font-family="Times,serif" font-size="10.00">• Domain → Application</text>
<text xml:space="preserve" text-anchor="middle" x="531.88" y="-65.75" font-family="Times,serif" font-size="10.00">• Inner layers → Outer layers</text>
<text xml:space="preserve" text-anchor="middle" x="531.88" y="-42.5" font-family="Times,serif" font-size="10.00">🎯 Clean Architecture ensures:</text>
<text xml:space="preserve" text-anchor="middle" x="531.88" y="-28.25" font-family="Times,serif" font-size="10.00">• Domain independence</text>
<text xml:space="preserve" text-anchor="middle" x="531.88" y="-17" font-family="Times,serif" font-size="10.00">• Testable business logic</text>
<text xml:space="preserve" text-anchor="middle" x="531.88" y="-5.75" font-family="Times,serif" font-size="10.00">• Framework flexibility</text>
<!-- gin -->
<g id="node1" class="node">
<title>gin</title>
<polygon fill="lightblue" stroke="black" points="569.62,-416.75 569.62,-456.25 701.88,-456.25 701.88,-416.75 569.62,-416.75"/>
<text xml:space="preserve" text-anchor="middle" x="635.75" y="-438.95" font-family="Arial" font-size="14.00">gin&#45;gonic/gin</text>
<text xml:space="preserve" text-anchor="middle" x="635.75" y="-423.2" font-family="Arial" font-size="14.00">(HTTP Framework)</text>
</g>
<!-- pgx -->
<g id="node2" class="node">
<title>pgx</title>
<polygon fill="lightblue" stroke="black" points="566.25,-713.75 566.25,-753.25 705.25,-753.25 705.25,-713.75 566.25,-713.75"/>
<text xml:space="preserve" text-anchor="middle" x="635.75" y="-735.95" font-family="Arial" font-size="14.00">jackc/pgx</text>
<text xml:space="preserve" text-anchor="middle" x="635.75" y="-720.2" font-family="Arial" font-size="14.00">(PostgreSQL Driver)</text>
</g>
<!-- zap -->
<g id="node3" class="node">
<title>zap</title>
<polygon fill="lightblue" stroke="black" points="789.62,-261.75 789.62,-301.25 877.62,-301.25 877.62,-261.75 789.62,-261.75"/>
<text xml:space="preserve" text-anchor="middle" x="833.62" y="-283.95" font-family="Arial" font-size="14.00">uber&#45;go/zap</text>
<text xml:space="preserve" text-anchor="middle" x="833.62" y="-268.2" font-family="Arial" font-size="14.00">(Logging)</text>
</g>
<!-- viper -->
<g id="node4" class="node">
<title>viper</title>
<polygon fill="lightblue" stroke="black" points="583.12,-202.75 583.12,-242.25 688.38,-242.25 688.38,-202.75 583.12,-202.75"/>
<text xml:space="preserve" text-anchor="middle" x="635.75" y="-224.95" font-family="Arial" font-size="14.00">spf13/viper</text>
<text xml:space="preserve" text-anchor="middle" x="635.75" y="-209.2" font-family="Arial" font-size="14.00">(Configuration)</text>
</g>
<!-- uuid -->
<g id="node5" class="node">
<title>uuid</title>
<polygon fill="lightblue" stroke="black" points="934.5,-602.75 934.5,-642.25 1063.75,-642.25 1063.75,-602.75 934.5,-602.75"/>
<text xml:space="preserve" text-anchor="middle" x="999.12" y="-624.95" font-family="Arial" font-size="14.00">google/uuid</text>
<text xml:space="preserve" text-anchor="middle" x="999.12" y="-609.2" font-family="Arial" font-size="14.00">(UUID Generation)</text>
</g>
<!-- migrate -->
<g id="node6" class="node">
<title>migrate</title>
<polygon fill="lightblue" stroke="black" points="15.75,-499.75 15.75,-539.25 126.25,-539.25 126.25,-499.75 15.75,-499.75"/>
<text xml:space="preserve" text-anchor="middle" x="71" y="-521.95" font-family="Arial" font-size="14.00">golang&#45;migrate</text>
<text xml:space="preserve" text-anchor="middle" x="71" y="-506.2" font-family="Arial" font-size="14.00">(DB Migrations)</text>
</g>
<!-- swag -->
<g id="node7" class="node">
<title>swag</title>
<polygon fill="lightblue" stroke="black" points="0,-558.75 0,-598.25 142,-598.25 142,-558.75 0,-558.75"/>
<text xml:space="preserve" text-anchor="middle" x="71" y="-580.95" font-family="Arial" font-size="14.00">swaggo/swag</text>
<text xml:space="preserve" text-anchor="middle" x="71" y="-565.2" font-family="Arial" font-size="14.00">(API Documentation)</text>
</g>
<!-- main -->
<g id="node8" class="node">
<title>main</title>
<polygon fill="lightgreen" stroke="black" points="7.88,-440.75 7.88,-480.25 134.12,-480.25 134.12,-440.75 7.88,-440.75"/>
<text xml:space="preserve" text-anchor="middle" x="71" y="-462.95" font-family="Arial" font-size="14.00">cmd/app/main.go</text>
<text xml:space="preserve" text-anchor="middle" x="71" y="-447.2" font-family="Arial" font-size="14.00">(Application Entry)</text>
</g>
<!-- app -->
<g id="node9" class="node">
<title>app</title>
<polygon fill="lightgreen" stroke="black" points="179,-440.75 179,-480.25 342,-480.25 342,-440.75 179,-440.75"/>
<text xml:space="preserve" text-anchor="middle" x="260.5" y="-462.95" font-family="Arial" font-size="14.00">internal/app</text>
<text xml:space="preserve" text-anchor="middle" x="260.5" y="-447.2" font-family="Arial" font-size="14.00">(Dependency Assembly)</text>
</g>
<!-- main&#45;&gt;app -->
<g id="edge1" class="edge">
<title>main&#45;&gt;app</title>
<path fill="none" stroke="black" d="M134.43,-460.5C145.06,-460.5 156.29,-460.5 167.49,-460.5"/>
<polygon fill="black" stroke="black" points="167.15,-464 177.15,-460.5 167.15,-457 167.15,-464"/>
</g>
<!-- config_pkg -->
<g id="node10" class="node">
<title>config_pkg</title>
<polygon fill="lightgreen" stroke="black" points="401.5,-202.75 401.5,-242.25 506.75,-242.25 506.75,-202.75 401.5,-202.75"/>
<text xml:space="preserve" text-anchor="middle" x="454.12" y="-224.95" font-family="Arial" font-size="14.00">internal/config</text>
<text xml:space="preserve" text-anchor="middle" x="454.12" y="-209.2" font-family="Arial" font-size="14.00">(Configuration)</text>
</g>
<!-- app&#45;&gt;config_pkg -->
<g id="edge2" class="edge">
<title>app&#45;&gt;config_pkg</title>
<path fill="none" stroke="black" d="M267.77,-440.42C281.49,-399.57 317.92,-306.14 379,-252.5 382.74,-249.22 386.88,-246.26 391.25,-243.62"/>
<polygon fill="black" stroke="black" points="392.62,-246.85 399.75,-239.01 389.29,-240.7 392.62,-246.85"/>
</g>
<!-- service -->
<g id="node13" class="node">
<title>service</title>
<polygon fill="lightyellow" stroke="black" points="577.88,-513.75 577.88,-553.25 693.62,-553.25 693.62,-513.75 577.88,-513.75"/>
<text xml:space="preserve" text-anchor="middle" x="635.75" y="-535.95" font-family="Arial" font-size="14.00">service</text>
<text xml:space="preserve" text-anchor="middle" x="635.75" y="-520.2" font-family="Arial" font-size="14.00">(Business Logic)</text>
</g>
<!-- app&#45;&gt;service -->
<g id="edge3" class="edge">
<title>app&#45;&gt;service</title>
<path fill="none" stroke="black" d="M340.01,-480.7C353,-483.81 366.35,-486.85 379,-489.5 442.04,-502.68 514.41,-514.86 566.05,-523.05"/>
<polygon fill="black" stroke="black" points="565.47,-526.5 575.9,-524.6 566.56,-519.59 565.47,-526.5"/>
</g>
<!-- postgres -->
<g id="node14" class="node">
<title>postgres</title>
<polygon fill="lightgray" stroke="black" points="379,-621.75 379,-661.25 529.25,-661.25 529.25,-621.75 379,-621.75"/>
<text xml:space="preserve" text-anchor="middle" x="454.12" y="-643.95" font-family="Arial" font-size="14.00">infrastructure/postgres</text>
<text xml:space="preserve" text-anchor="middle" x="454.12" y="-628.2" font-family="Arial" font-size="14.00">(Database)</text>
</g>
<!-- app&#45;&gt;postgres -->
<g id="edge5" class="edge">
<title>app&#45;&gt;postgres</title>
<path fill="none" stroke="black" d="M282.74,-480.56C316.98,-512.91 384.49,-576.67 423.46,-613.48"/>
<polygon fill="black" stroke="black" points="421.02,-615.99 430.69,-620.31 425.82,-610.9 421.02,-615.99"/>
</g>
<!-- handlers -->
<g id="node15" class="node">
<title>handlers</title>
<polygon fill="lightcyan" stroke="black" points="389.5,-440.75 389.5,-480.25 518.75,-480.25 518.75,-440.75 389.5,-440.75"/>
<text xml:space="preserve" text-anchor="middle" x="454.12" y="-462.95" font-family="Arial" font-size="14.00">delivery/handlers</text>
<text xml:space="preserve" text-anchor="middle" x="454.12" y="-447.2" font-family="Arial" font-size="14.00">(HTTP Controllers)</text>
</g>
<!-- app&#45;&gt;handlers -->
<g id="edge4" class="edge">
<title>app&#45;&gt;handlers</title>
<path fill="none" stroke="black" d="M342.49,-460.5C354.21,-460.5 366.23,-460.5 377.84,-460.5"/>
<polygon fill="black" stroke="black" points="377.76,-464 387.76,-460.5 377.76,-457 377.76,-464"/>
</g>
<!-- logger_pkg -->
<g id="node18" class="node">
<title>logger_pkg</title>
<polygon fill="wheat" stroke="black" points="571.5,-261.75 571.5,-301.25 700,-301.25 700,-261.75 571.5,-261.75"/>
<text xml:space="preserve" text-anchor="middle" x="635.75" y="-283.95" font-family="Arial" font-size="14.00">pkg/logger</text>
<text xml:space="preserve" text-anchor="middle" x="635.75" y="-268.2" font-family="Arial" font-size="14.00">(Logging Wrapper)</text>
</g>
<!-- app&#45;&gt;logger_pkg -->
<g id="edge6" class="edge">
<title>app&#45;&gt;logger_pkg</title>
<path fill="none" stroke="black" d="M301.18,-440.44C359.09,-411.31 470.33,-355.93 566.25,-311.5 569.94,-309.79 573.76,-308.05 577.61,-306.31"/>
<polygon fill="black" stroke="black" points="578.76,-309.63 586.45,-302.35 575.9,-303.24 578.76,-309.63"/>
</g>
<!-- config_pkg&#45;&gt;viper -->
<g id="edge21" class="edge">
<title>config_pkg&#45;&gt;viper</title>
<path fill="none" stroke="black" d="M507.08,-222.5C527.19,-222.5 550.39,-222.5 571.46,-222.5"/>
<polygon fill="black" stroke="black" points="571.4,-226 581.4,-222.5 571.4,-219 571.4,-226"/>
</g>
<!-- models -->
<g id="node11" class="node">
<title>models</title>
<polygon fill="lightcoral" stroke="black" points="769.75,-602.75 769.75,-642.25 897.5,-642.25 897.5,-602.75 769.75,-602.75"/>
<text xml:space="preserve" text-anchor="middle" x="833.62" y="-624.95" font-family="Arial" font-size="14.00">domain/models</text>
<text xml:space="preserve" text-anchor="middle" x="833.62" y="-609.2" font-family="Arial" font-size="14.00">(Business Entities)</text>
</g>
<!-- models&#45;&gt;uuid -->
<g id="edge25" class="edge">
<title>models&#45;&gt;uuid</title>
<path fill="none" stroke="black" d="M897.84,-622.5C905.99,-622.5 914.41,-622.5 922.73,-622.5"/>
<polygon fill="black" stroke="black" points="922.49,-626 932.49,-622.5 922.49,-619 922.49,-626"/>
</g>
<!-- ports -->
<g id="node12" class="node">
<title>ports</title>
<polygon fill="lightcoral" stroke="black" points="786.25,-543.75 786.25,-583.25 881,-583.25 881,-543.75 786.25,-543.75"/>
<text xml:space="preserve" text-anchor="middle" x="833.62" y="-565.95" font-family="Arial" font-size="14.00">domain/ports</text>
<text xml:space="preserve" text-anchor="middle" x="833.62" y="-550.2" font-family="Arial" font-size="14.00">(Interfaces)</text>
</g>
<!-- service&#45;&gt;models -->
<g id="edge7" class="edge">
<title>service&#45;&gt;models</title>
<path fill="none" stroke="black" d="M681.2,-553.7C709.87,-566.72 747.37,-583.76 777.88,-597.63"/>
<polygon fill="black" stroke="black" points="776.42,-600.81 786.98,-601.76 779.32,-594.44 776.42,-600.81"/>
</g>
<!-- service&#45;&gt;ports -->
<g id="edge8" class="edge">
<title>service&#45;&gt;ports</title>
<path fill="none" stroke="black" d="M693.84,-546.19C703.62,-548.13 713.71,-549.99 723.25,-551.5 739.88,-554.14 758.03,-556.38 774.68,-558.19"/>
<polygon fill="black" stroke="black" points="774.11,-561.65 784.42,-559.21 774.84,-554.69 774.11,-561.65"/>
</g>
<!-- service&#45;&gt;ports -->
<g id="edge12" class="edge">
<title>service&#45;&gt;ports</title>
<path fill="none" stroke="black" stroke-width="2" d="M693.88,-528.11C712.47,-527.55 733.11,-528.22 751.75,-531.75 760.81,-533.46 770.16,-536.17 779.14,-539.3"/>
<polygon fill="black" stroke="black" stroke-width="2" points="776.43,-542.03 787.02,-542.23 778.87,-535.47 776.43,-542.03"/>
<text xml:space="preserve" text-anchor="middle" x="737.5" y="-534.2" font-family="Arial" font-size="14.00">uses</text>
</g>
<!-- utils -->
<g id="node19" class="node">
<title>utils</title>
<polygon fill="wheat" stroke="black" points="799.38,-382.75 799.38,-422.25 867.88,-422.25 867.88,-382.75 799.38,-382.75"/>
<text xml:space="preserve" text-anchor="middle" x="833.62" y="-404.95" font-family="Arial" font-size="14.00">pkg/utils</text>
<text xml:space="preserve" text-anchor="middle" x="833.62" y="-389.2" font-family="Arial" font-size="14.00">(Utilities)</text>
</g>
<!-- service&#45;&gt;utils -->
<g id="edge17" class="edge">
<title>service&#45;&gt;utils</title>
<path fill="none" stroke="black" d="M666.93,-513.32C700.72,-490.72 755.61,-454.01 792.87,-429.08"/>
<polygon fill="black" stroke="black" points="794.79,-432.01 801.16,-423.55 790.9,-426.2 794.79,-432.01"/>
</g>
<!-- apperror -->
<g id="node20" class="node">
<title>apperror</title>
<polygon fill="wheat" stroke="black" points="777.62,-467.75 777.62,-507.25 889.62,-507.25 889.62,-467.75 777.62,-467.75"/>
<text xml:space="preserve" text-anchor="middle" x="833.62" y="-489.95" font-family="Arial" font-size="14.00">pkg/apperror</text>
<text xml:space="preserve" text-anchor="middle" x="833.62" y="-474.2" font-family="Arial" font-size="14.00">(Error Handling)</text>
</g>
<!-- service&#45;&gt;apperror -->
<g id="edge18" class="edge">
<title>service&#45;&gt;apperror</title>
<path fill="none" stroke="black" d="M693.93,-520.07C716.65,-514.74 742.92,-508.57 766.45,-503.04"/>
<polygon fill="black" stroke="black" points="766.99,-506.51 775.92,-500.82 765.39,-499.7 766.99,-506.51"/>
</g>
<!-- postgres&#45;&gt;pgx -->
<g id="edge24" class="edge">
<title>postgres&#45;&gt;pgx</title>
<path fill="none" stroke="black" d="M483.75,-661.52C501.53,-673.44 525.13,-688.37 547.25,-699.5 553.8,-702.8 560.76,-705.99 567.77,-709"/>
<polygon fill="black" stroke="black" points="566.07,-712.09 576.65,-712.71 568.77,-705.63 566.07,-712.09"/>
</g>
<!-- postgres&#45;&gt;models -->
<g id="edge10" class="edge">
<title>postgres&#45;&gt;models</title>
<path fill="none" stroke="black" d="M529.57,-657.26C590.36,-667.24 677.97,-674.96 751.75,-655.5 760.61,-653.16 769.8,-650.09 778.66,-646.76"/>
<polygon fill="black" stroke="black" points="779.82,-650.06 787.85,-643.15 777.26,-643.55 779.82,-650.06"/>
</g>
<!-- postgres&#45;&gt;ports -->
<g id="edge11" class="edge">
<title>postgres&#45;&gt;ports</title>
<path fill="none" stroke="black" stroke-width="2" d="M529.5,-636.28C579.66,-631.72 647.06,-623.55 705.25,-609.5 728.61,-603.86 753.63,-595.39 775.25,-587.25"/>
<polygon fill="black" stroke="black" stroke-width="2" points="774.99,-591.1 783.07,-584.25 772.48,-584.56 774.99,-591.1"/>
<text xml:space="preserve" text-anchor="middle" x="635.75" y="-634.98" font-family="Arial" font-size="14.00">implements</text>
</g>
<!-- postgres&#45;&gt;logger_pkg -->
<g id="edge20" class="edge">
<title>postgres&#45;&gt;logger_pkg</title>
<path fill="none" stroke="black" d="M466.87,-621.54C483.11,-593.12 512.35,-538.95 529.25,-489.5 542.32,-451.27 540.8,-342.88 566.25,-311.5 566.91,-310.68 567.6,-309.89 568.31,-309.12"/>
<polygon fill="black" stroke="black" points="570.48,-311.87 575.64,-302.61 565.84,-306.63 570.48,-311.87"/>
</g>
<!-- handlers&#45;&gt;gin -->
<g id="edge23" class="edge">
<title>handlers&#45;&gt;gin</title>
<path fill="none" stroke="black" d="M519.21,-451.94C531.76,-450.26 545.04,-448.49 557.95,-446.76"/>
<polygon fill="black" stroke="black" points="558.22,-450.26 567.67,-445.46 557.3,-443.32 558.22,-450.26"/>
</g>
<!-- handlers&#45;&gt;models -->
<g id="edge9" class="edge">
<title>handlers&#45;&gt;models</title>
<path fill="none" stroke="black" stroke-dasharray="5,2" d="M470.87,-480.5C490.55,-504.02 526.52,-542.41 566.25,-562.5 622.43,-590.9 643.85,-575.85 705.25,-589.75 722.59,-593.67 741.16,-598.24 758.61,-602.69"/>
<polygon fill="black" stroke="black" points="757.28,-605.97 767.84,-605.07 759.03,-599.19 757.28,-605.97"/>
<text xml:space="preserve" text-anchor="middle" x="635.75" y="-592.2" font-family="Arial" font-size="14.00">via mappers</text>
</g>
<!-- handlers&#45;&gt;service -->
<g id="edge13" class="edge">
<title>handlers&#45;&gt;service</title>
<path fill="none" stroke="black" d="M504.68,-480.64C526.29,-489.42 551.81,-499.79 574.5,-509.01"/>
<polygon fill="black" stroke="black" points="573.06,-512.21 583.64,-512.73 575.69,-505.72 573.06,-512.21"/>
</g>
<!-- dto -->
<g id="node16" class="node">
<title>dto</title>
<polygon fill="lightcyan" stroke="black" points="582,-320.75 582,-360.25 689.5,-360.25 689.5,-320.75 582,-320.75"/>
<text xml:space="preserve" text-anchor="middle" x="635.75" y="-342.95" font-family="Arial" font-size="14.00">transport/dto</text>
<text xml:space="preserve" text-anchor="middle" x="635.75" y="-327.2" font-family="Arial" font-size="14.00">(Data Transfer)</text>
</g>
<!-- handlers&#45;&gt;dto -->
<g id="edge14" class="edge">
<title>handlers&#45;&gt;dto</title>
<path fill="none" stroke="black" d="M472.42,-440.42C489.74,-421.34 517.98,-392.89 547.25,-374.5 554.72,-369.81 562.95,-365.58 571.27,-361.83"/>
<polygon fill="black" stroke="black" points="572.6,-365.07 580.43,-357.93 569.86,-358.63 572.6,-365.07"/>
</g>
<!-- handlers&#45;&gt;utils -->
<g id="edge19" class="edge">
<title>handlers&#45;&gt;utils</title>
<path fill="none" stroke="black" d="M487.79,-440.35C509.23,-428.3 538.37,-414.08 566.25,-407.5 642.42,-389.51 734.27,-393.12 787.79,-397.63"/>
<polygon fill="black" stroke="black" points="787.48,-401.12 797.75,-398.53 788.1,-394.15 787.48,-401.12"/>
</g>
<!-- handlers&#45;&gt;apperror -->
<g id="edge15" class="edge">
<title>handlers&#45;&gt;apperror</title>
<path fill="none" stroke="black" d="M519.16,-465.08C587.81,-469.99 696.29,-477.75 765.94,-482.73"/>
<polygon fill="black" stroke="black" points="765.46,-486.21 775.69,-483.43 765.96,-479.22 765.46,-486.21"/>
</g>
<!-- middleware_pkg -->
<g id="node17" class="node">
<title>middleware_pkg</title>
<polygon fill="lightcyan" stroke="black" points="386.12,-261.75 386.12,-301.25 522.12,-301.25 522.12,-261.75 386.12,-261.75"/>
<text xml:space="preserve" text-anchor="middle" x="454.12" y="-283.95" font-family="Arial" font-size="14.00">delivery/middleware</text>
<text xml:space="preserve" text-anchor="middle" x="454.12" y="-268.2" font-family="Arial" font-size="14.00">(Cross&#45;cutting)</text>
</g>
<!-- middleware_pkg&#45;&gt;logger_pkg -->
<g id="edge16" class="edge">
<title>middleware_pkg&#45;&gt;logger_pkg</title>
<path fill="none" stroke="black" d="M522.52,-281.5C534.72,-281.5 547.5,-281.5 559.89,-281.5"/>
<polygon fill="black" stroke="black" points="559.62,-285 569.62,-281.5 559.62,-278 559.62,-285"/>
</g>
<!-- logger_pkg&#45;&gt;zap -->
<g id="edge22" class="edge">
<title>logger_pkg&#45;&gt;zap</title>
<path fill="none" stroke="black" d="M700.34,-281.5C725.3,-281.5 753.67,-281.5 777.72,-281.5"/>
<polygon fill="black" stroke="black" points="777.63,-285 787.63,-281.5 777.63,-278 777.63,-285"/>
</g>
</g>
</svg>
